<?xml version="1.0" encoding="UTF-8"?>
<svg width="771px" height="223px" viewBox="0 0 771 223" version="1.1" xmlns="http://www.w3.org/2000/svg" xmlns:xlink="http://www.w3.org/1999/xlink">
    <title>Path</title>
    <defs>
        <path d="M319.902344,223 L319.902344,187.492188 L320.058594,187.492188 L331.972656,214.835938 L339.160156,214.835938 L351.074219,187.492188 L351.269531,187.492188 L351.269531,223 L359.902344,223 L359.902344,166.046875 L351.738281,166.046875 L335.722656,203.15625 L319.394531,166.046875 L311.269531,166.046875 L311.269531,223 L319.902344,223 Z M381.097656,223 L385.472656,210.265625 L407.074219,210.265625 L411.488281,223 L420.589844,223 L399.886719,166.046875 L392.660156,166.046875 L371.957031,223 L381.097656,223 Z M404.613281,202.609375 L387.972656,202.609375 L396.214844,177.726562 L396.371094,177.726562 L404.613281,202.609375 Z M449.480469,223.46875 C462.527344,223.3125 469.19401,217.791667 469.480469,206.90625 C469.480469,202.869792 468.217448,199.328125 465.691406,196.28125 C463.139323,193.182292 459.19401,191.268229 453.855469,190.539062 C451.147135,190.200521 449.011719,189.901042 447.449219,189.640625 C444.636719,189.119792 442.592448,188.182292 441.316406,186.828125 C440.040365,185.5 439.402344,184.015625 439.402344,182.375 C439.454427,179.640625 440.404948,177.583333 442.253906,176.203125 C444.02474,174.875 446.238281,174.210938 448.894531,174.210938 C454.02474,174.315104 458.72526,175.773438 462.996094,178.585938 L467.800781,171.476562 C462.566406,167.700521 456.407552,165.734375 449.324219,165.578125 C443.438802,165.630208 438.894531,167.166667 435.691406,170.1875 C432.384115,173.234375 430.730469,177.244792 430.730469,182.21875 C430.730469,186.359375 432.045573,189.875 434.675781,192.765625 C437.227865,195.578125 440.951823,197.388021 445.847656,198.195312 C448.582031,198.585938 451.095052,198.9375 453.386719,199.25 C458.386719,200.109375 460.860677,202.661458 460.808594,206.90625 C460.704427,212.088542 456.954427,214.731771 449.558594,214.835938 C443.308594,214.783854 437.917969,212.895833 433.386719,209.171875 L427.722656,215.65625 C433.790365,220.864583 441.042969,223.46875 449.480469,223.46875 Z M502.902344,223 L502.902344,173.742188 L518.488281,173.742188 L518.488281,166.046875 L478.644531,166.046875 L478.644531,173.742188 L494.230469,173.742188 L494.230469,223 L502.902344,223 Z M566.949219,223 L566.949219,214.835938 L539.214844,214.835938 L539.214844,198.117188 L562.886719,198.117188 L562.886719,190.460938 L539.214844,190.460938 L539.214844,174.210938 L566.949219,174.210938 L566.949219,166.046875 L530.582031,166.046875 L530.582031,223 L566.949219,223 Z M589.707031,223 L589.707031,198.664062 L600.722656,198.664062 L612.480469,223 L622.753906,223 L609.550781,197.726562 C616.790365,194.940104 620.46224,189.679688 620.566406,181.945312 C620.410156,176.684896 618.522135,172.635417 614.902344,169.796875 C611.907552,167.296875 608.040365,166.046875 603.300781,166.046875 L581.074219,166.046875 L581.074219,223 L589.707031,223 Z M602.753906,191.007812 L589.707031,191.007812 L589.707031,173.742188 L603.222656,173.742188 C605.983073,173.742188 608.092448,174.328125 609.550781,175.5 C611.39974,176.828125 612.35026,178.976562 612.402344,181.945312 C612.402344,184.419271 611.608073,186.502604 610.019531,188.195312 C608.404948,190.018229 605.983073,190.955729 602.753906,191.007812 Z M652.660156,223.46875 C665.707031,223.3125 672.373698,217.791667 672.660156,206.90625 C672.660156,202.869792 671.397135,199.328125 668.871094,196.28125 C666.31901,193.182292 662.373698,191.268229 657.035156,190.539062 C654.326823,190.200521 652.191406,189.901042 650.628906,189.640625 C647.816406,189.119792 645.772135,188.182292 644.496094,186.828125 C643.220052,185.5 642.582031,184.015625 642.582031,182.375 C642.634115,179.640625 643.584635,177.583333 645.433594,176.203125 C647.204427,174.875 649.417969,174.210938 652.074219,174.210938 C657.204427,174.315104 661.904948,175.773438 666.175781,178.585938 L670.980469,171.476562 C665.746094,167.700521 659.58724,165.734375 652.503906,165.578125 C646.61849,165.630208 642.074219,167.166667 638.871094,170.1875 C635.563802,173.234375 633.910156,177.244792 633.910156,182.21875 C633.910156,186.359375 635.22526,189.875 637.855469,192.765625 C640.407552,195.578125 644.13151,197.388021 649.027344,198.195312 C651.761719,198.585938 654.27474,198.9375 656.566406,199.25 C661.566406,200.109375 664.040365,202.661458 663.988281,206.90625 C663.884115,212.088542 660.134115,214.731771 652.738281,214.835938 C646.488281,214.783854 641.097656,212.895833 636.566406,209.171875 L630.902344,215.65625 C636.970052,220.864583 644.222656,223.46875 652.660156,223.46875 Z" id="path-1"></path>
    </defs>
    <g id="Page-1" stroke="none" stroke-width="1" fill="none" fill-rule="evenodd">
        <path d="M363.85,85.198 L352.013,53.29 C351.53,51.985 349.684,51.985 349.2,53.29 L337.365,85.2 C337.194471,85.6603987 337.260046,86.1751085 337.540565,86.5780429 C337.821084,86.9809773 338.281035,87.2210001 338.772,87.2210001 L362.443,87.2210001 C362.934043,87.2210001 363.393955,86.9805032 363.67429,86.5773469 C363.954625,86.1741906 364.019883,85.6593498 363.849,85.199 M369.318,103.133 L331.898,103.133 C331.270991,103.133101 330.710199,103.523183 330.492,104.111 L323.125,123.965 C322.906801,124.552817 322.346009,124.942899 321.719,124.943 L305.5,124.943 C305.002152,124.942884 304.536799,124.695767 304.257875,124.283391 C303.97895,123.871015 303.9228,123.347119 304.108,122.885 L341.449,29.863 C341.677757,29.2945605 342.229258,28.9229993 342.842,28.9229993 L358.372,28.9229993 C358.984,28.9229993 359.535,29.295 359.764,29.863 L397.104,122.884 C397.290059,123.346338 397.234339,123.870896 396.955307,124.283831 C396.676275,124.696766 396.210372,124.944 395.712,124.944 L379.496,124.944 C378.868737,124.944 378.307869,124.553211 378.09,123.965 L370.722,104.111 C370.503801,103.523183 369.943009,103.133101 369.316,103.133 M404.703,61.569 L418.575,61.569 C419.403427,61.569 420.075,62.2405729 420.075,63.069 L420.075,123.443 C420.075,124.271427 419.403427,124.943 418.575,124.943 L404.703,124.943 C403.874573,124.943 403.203,124.271427 403.203,123.443 L403.203,63.068 C403.203,62.2395729 403.874573,61.568 404.703,61.568 M470.667,76.255 C470.667,77.0834271 469.995427,77.755 469.167,77.755 L468.747,77.755 C461.888,77.755 456.857,79.401 453.657,82.693 C450.455,85.985 448.857,91.427 448.857,99.017 L448.857,123.443 C448.857,124.271427 448.185427,124.943 447.357,124.943 L433.621,124.943 C432.792573,124.943 432.121,124.271427 432.121,123.443 L432.121,63.068 C432.121,62.2395729 432.792573,61.568 433.621,61.568 L447.219,61.568 C448.047427,61.568 448.719,62.2395729 448.719,63.068 L448.719,75.01 L448.994,75.01 C450.64,70.072 453.246,66.279 456.814,63.625 C460.379,60.974 464.769,59.647 469.981,59.647 L470.667,59.647 L470.667,76.254 L470.667,76.255 Z M508.597,75.697 C507.768573,75.697 507.097,76.3685729 507.097,77.197 L507.097,102.309 C507.097,104.87 507.597,106.699 508.605,107.796 C509.61,108.893 511.348,109.442 513.817,109.442 L515.198,109.442 C516.026427,109.442 516.698,110.113573 516.698,110.942 L516.698,123.579 C516.698,124.407427 516.026427,125.079 515.198,125.079 L509.29,125.079 C503.163,125.079 498.454,123.502 495.162,120.347 C491.869,117.192 490.223,112.507 490.223,106.287 L490.223,77.197 C490.223,76.3685729 489.551427,75.697 488.723,75.697 L480.064,75.697 C479.235573,75.697 478.564,75.0254271 478.564,74.197 L478.564,63.068 C478.564,62.2395729 479.235573,61.568 480.064,61.568 L488.724,61.568 C489.552427,61.568 490.224,60.8964271 490.224,60.068 L490.224,37.691 C490.224,36.8625729 490.895573,36.191 491.724,36.191 L505.596,36.191 C506.424427,36.191 507.096,36.8625729 507.096,37.691 L507.096,60.068 C507.096,60.8964271 507.767573,61.568 508.596,61.568 L518.627,61.568 C519.455427,61.568 520.127,62.2395729 520.127,63.068 L520.127,74.198 C520.127,75.0264271 519.455427,75.698 518.627,75.698 L508.597,75.698 L508.597,75.697 Z M572.118,106.15 C575.273,102.858 576.85,98.56 576.85,93.255 C576.85,87.953 575.273,83.653 572.118,80.361 C568.963,77.069 564.824,75.423 559.703,75.423 C554.581,75.423 550.445,77.069 547.289,80.361 C544.135,83.653 542.557,87.953 542.557,93.255 C542.557,98.56 544.135,102.858 547.289,106.15 C550.445,109.442 554.581,111.088 559.703,111.088 C564.824,111.088 568.963,109.442 572.118,106.15 M540.088,123.022 C535.424,120.371 531.742,116.506 529.046,111.431 C526.347,106.356 524.999,100.298 524.999,93.255 C524.999,86.215 526.347,80.155 529.046,75.08 C531.742,70.005 535.424,66.143 540.088,63.489 C544.752,60.837 549.872,59.511 555.451,59.511 C560.389,59.511 564.618,60.471 568.141,62.391 C571.659,64.311 574.471,67.01 576.576,70.485 L576.85,70.485 L576.85,63.068 C576.85,62.2395729 577.521573,61.568 578.35,61.568 L592.085,61.568 C592.913427,61.568 593.585,62.2395729 593.585,63.068 L593.585,123.442 C593.585,124.270427 592.913427,124.942 592.085,124.942 L578.35,124.942 C577.521573,124.942 576.85,124.270427 576.85,123.442 L576.85,116.026 L576.576,116.026 C574.471,119.503 571.659,122.199 568.14,124.119 C564.618,126.039 560.39,126.999 555.451,126.999 C549.872,126.999 544.752,125.673 540.088,123.022 M650.708,106.15 C653.863,102.858 655.44,98.56 655.44,93.255 C655.44,87.953 653.863,83.653 650.708,80.361 C647.554,77.069 643.415,75.423 638.294,75.423 C633.172,75.423 629.035,77.069 625.88,80.361 C622.726,83.653 621.147,87.953 621.147,93.255 C621.147,98.56 622.726,102.858 625.88,106.15 C629.035,109.442 633.172,111.088 638.294,111.088 C643.415,111.088 647.554,109.442 650.708,106.15 M629.858,124.119 C626.337,122.199 623.524,119.503 621.422,116.026 L621.147,116.026 L621.147,123.442 C621.147,124.270427 620.475427,124.942 619.647,124.942 L605.775,124.942 C604.946573,124.942 604.275,124.270427 604.275,123.442 L604.275,30.42 C604.275,29.5915729 604.946573,28.92 605.775,28.92 L619.647,28.92 C620.475427,28.92 621.147,29.5915729 621.147,30.42 L621.147,70.484 L621.422,70.484 C623.524,67.009 626.337,64.311 629.858,62.391 C633.378,60.47 637.608,59.51 642.547,59.51 C648.124,59.51 653.246,60.836 657.91,63.488 C662.574,66.142 666.254,70.004 668.952,75.078 C671.649,80.156 673,86.216 673,93.256 C673,100.299 671.649,106.356 668.953,111.432 C666.255,116.507 662.575,120.372 657.911,123.022 C653.247,125.674 648.125,127.001 642.548,127.001 C637.609,127.001 633.379,126.041 629.859,124.12 M696.372,124.943 L682.5,124.943 C681.671573,124.943 681,124.271427 681,123.443 L681,30.423 C681,29.5945729 681.671573,28.923 682.5,28.923 L696.372,28.923 C697.200427,28.923 697.872,29.5945729 697.872,30.423 L697.872,123.443 C697.872,124.271427 697.200427,124.943 696.372,124.943 M729.094,76.247 C726.794,78.041 725.241,80.631 724.437,84.019 C724.216,84.953 724.945,85.849 725.905,85.849 L752.305,85.849 C753.221,85.849 753.941,85.029 753.793,84.125 C753.265,80.92 751.891,78.365 749.67,76.453 C747.064,74.213 743.656,73.093 739.45,73.093 C735.243,73.093 731.79,74.144 729.094,76.247 M762.907,68.359 C768.302,74.259 771,82.604 771,93.393 L771,95.185 C771,96.0134271 770.328427,96.685 769.5,96.685 L725.396,96.685 C724.951306,96.6859249 724.52963,96.8828213 724.243429,97.2231783 C723.957229,97.5635352 723.835607,98.0127426 723.911,98.451 C724.616,102.459 726.389,105.643 729.231,108.002 C732.476,110.702 736.57,112.049 741.508,112.049 C747.883,112.049 753.784,109.561 759.21,104.584 C759.873,103.976 760.924,104.105 761.438,104.844 L768.182,114.524 C768.619564,115.147266 768.520667,115.999501 767.952,116.506 C764.642076,119.403604 760.961885,121.848658 757.008,123.777 C752.618,125.925 747.451,127.001 741.508,127.001 C734.65,127.001 728.658,125.605 723.538,122.817 C718.415,120.029 714.438,116.097 711.605,111.02 C708.769,105.945 707.352,100.07 707.352,93.393 C707.352,86.719 708.724,80.821 711.467,75.698 C714.21,70.578 718.051,66.6 722.99,63.764 C727.928,60.931 733.689,59.512 740.274,59.512 C749.964,59.512 757.51,62.462 762.907,68.359 M421.887,39.249 C421.887,44.907 417.3,49.494 411.641,49.494 C405.981,49.494 401.394,44.907 401.394,39.248 C401.394,33.589 405.982,29.002 411.641,29.002 C417.3,29.002 421.887,33.589 421.887,39.248" id="Shape" fill="#333333" fill-rule="nonzero"></path>
        <path d="M120.277641,2.80052995 L21.0238584,43.7292339 C15.5044091,46.0056334 15.5615899,53.8200721 21.1156486,56.0139934 L120.78324,95.4026035 C129.540189,98.863748 139.292491,98.863748 148.04944,95.4026035 L247.718536,56.0124938 C253.27109,53.8200721 253.33128,46.007133 247.808821,43.7307335 L148.558048,2.79903034 C139.503052,-0.935060972 129.331133,-0.935060972 120.276137,2.79903034" id="Path" fill="#6A6A6A" fill-rule="nonzero"></path>
        <path d="M142.917,117.711151 L142.917,216.349191 C142.917,221.039297 147.676874,224.253222 152.06467,222.524497 L263.697093,179.459704 C266.244754,178.456038 267.917,176.008106 267.917,173.284398 L267.917,74.6478609 C267.917,69.9562517 263.157126,66.7438297 258.76933,68.4725547 L147.136907,111.537348 C144.589797,112.541698 142.917,114.989204 142.917,117.712655" id="Path" fill="#020202" fill-rule="nonzero"></path>
        <path d="M117.201379,122.450026 L84.1385655,138.367635 L80.7815669,139.985584 L10.9879959,173.330386 C6.56533139,175.458553 0.917000091,172.243726 0.917000091,167.343222 L0.917000091,74.6520466 C0.917000091,72.8790754 1.82870295,71.3484203 3.05135083,70.1970426 C3.55293788,69.6990158 4.12198648,69.2734658 4.74192567,68.9327847 C6.40834944,67.934924 8.78722975,67.6685268 10.8098818,68.4662133 L116.645905,110.280038 C122.025555,112.408206 122.448199,119.92452 117.201379,122.451531" id="Path" fill="#ED5242" fill-rule="nonzero"></path>
        <path d="M117.228668,122.938159 L84.4086801,138.998462 L3.91700009,70.2152333 C4.41500099,69.7132782 4.97986554,69.284428 5.59515872,68.9411604 C7.24934365,67.9343544 9.61075258,67.6655691 11.6185495,68.4704065 L116.677273,110.659073 C122.017414,112.806319 122.436953,120.390013 117.228668,122.939677" id="Path" fill-opacity="0.25" fill="#000000" fill-rule="nonzero"></path>
        <g id="MASTERS" fill-rule="nonzero">
            <use fill="#FFFFFF" xlink:href="#path-1"></use>
            <use fill="#ED5242" xlink:href="#path-1"></use>
        </g>
    </g>
</svg>